<svg width="34" height="26" viewBox="0 0 34 26" fill="none" xmlns="http://www.w3.org/2000/svg">
<g clip-path="url(#clip0_1_2506)">
<path d="M6.04591 25.7171V24.0065C6.04591 23.3506 5.64667 22.923 4.96235 22.923C4.62025 22.923 4.24958 23.0371 3.99294 23.4077C3.79345 23.0941 3.50837 22.923 3.08068 22.923C2.79547 22.923 2.51052 23.0085 2.28233 23.3221V22.98H1.68359V25.7171H2.28233V24.2059C2.28233 23.7214 2.53897 23.4932 2.93821 23.4932C3.33719 23.4932 3.53694 23.7498 3.53694 24.2059V25.7171H4.13568V24.2059C4.13568 23.7214 4.42063 23.4932 4.7913 23.4932C5.19054 23.4932 5.39003 23.7498 5.39003 24.2059V25.7171H6.04591ZM14.9128 22.98H13.9435V22.1532H13.3448V22.98H12.803V23.5216H13.3446V24.7762C13.3446 25.4035 13.6013 25.7741 14.2856 25.7741C14.5422 25.7741 14.8272 25.6886 15.0269 25.5746L14.8558 25.0613C14.6847 25.1754 14.4852 25.2039 14.3426 25.2039C14.0575 25.2039 13.9435 25.0329 13.9435 24.7477V23.5216H14.9128V22.98ZM19.9879 22.9229C19.6458 22.9229 19.4177 23.0941 19.2751 23.3221V22.98H18.6764V25.7171H19.2751V24.1775C19.2751 23.7214 19.4746 23.4647 19.8452 23.4647C19.9593 23.4647 20.1019 23.4933 20.2159 23.5218L20.387 22.9516C20.2729 22.923 20.1019 22.923 19.9879 22.923V22.9229ZM12.3183 23.2081C12.0331 23.0085 11.634 22.923 11.2063 22.923C10.5221 22.923 10.066 23.2651 10.066 23.8068C10.066 24.2631 10.4081 24.5196 11.0068 24.6052L11.2919 24.6338C11.6056 24.6906 11.7766 24.7762 11.7766 24.9188C11.7766 25.1183 11.5486 25.2609 11.1493 25.2609C10.7502 25.2609 10.4365 25.1183 10.2369 24.9759L9.95184 25.432C10.2655 25.6601 10.6932 25.7741 11.1207 25.7741C11.9191 25.7741 12.3754 25.4035 12.3754 24.8903C12.3754 24.4056 12.0047 24.1489 11.4344 24.0635L11.1493 24.0349C10.8927 24.0063 10.6932 23.9494 10.6932 23.7784C10.6932 23.5788 10.8927 23.4647 11.2063 23.4647C11.5486 23.4647 11.8907 23.6072 12.0617 23.6928L12.3183 23.2081ZM28.2277 22.923C27.8854 22.923 27.6574 23.0941 27.5148 23.3221V22.98H26.916V25.7171H27.5148V24.1775C27.5148 23.7214 27.7144 23.4647 28.0849 23.4647C28.1991 23.4647 28.3417 23.4933 28.4557 23.5218L28.6268 22.9516C28.5127 22.923 28.3417 22.923 28.2277 22.923ZM20.5866 24.3486C20.5866 25.1753 21.1567 25.7741 22.0407 25.7741C22.4398 25.7741 22.7249 25.6886 23.01 25.4606L22.7249 24.9759C22.4968 25.1469 22.2688 25.2324 22.0121 25.2324C21.5274 25.2324 21.1853 24.8903 21.1853 24.3486C21.1853 23.8354 21.5274 23.4932 22.0121 23.4647C22.2688 23.4647 22.4968 23.5502 22.7249 23.7214L23.01 23.2367C22.7249 23.0085 22.4398 22.923 22.0407 22.923C21.1567 22.923 20.5866 23.5218 20.5866 24.3486ZM26.1178 24.3486V22.98H25.5191V23.3221C25.3194 23.0656 25.0344 22.923 24.6637 22.923C23.8939 22.923 23.2952 23.5218 23.2952 24.3486C23.2952 25.1753 23.8939 25.7741 24.6637 25.7741C25.0628 25.7741 25.348 25.6316 25.5191 25.375V25.7171H26.1178V24.3486ZM23.9224 24.3486C23.9224 23.8639 24.236 23.4647 24.7492 23.4647C25.2339 23.4647 25.5761 23.8354 25.5761 24.3486C25.5761 24.8333 25.2339 25.2324 24.7492 25.2324C24.236 25.2038 23.9224 24.8333 23.9224 24.3486ZM16.7661 22.923C15.9678 22.923 15.3975 23.4932 15.3975 24.3486C15.3975 25.2039 15.9676 25.7741 16.7946 25.7741C17.1937 25.7741 17.5929 25.6601 17.9066 25.4035L17.6214 24.9759C17.3933 25.1469 17.1082 25.2609 16.8231 25.2609C16.4525 25.2609 16.0818 25.0899 15.9962 24.6051H18.0206V24.3771C18.0492 23.4932 17.5359 22.923 16.766 22.923H16.7661ZM16.7661 23.4362C17.1367 23.4362 17.3934 23.6644 17.4503 24.092H16.0248C16.0818 23.7214 16.3384 23.4362 16.7661 23.4362ZM31.6204 24.3486V21.8966H31.0217V23.3221C30.8221 23.0656 30.537 22.923 30.1663 22.923C29.3966 22.923 28.7978 23.5218 28.7978 24.3486C28.7978 25.1753 29.3966 25.7741 30.1663 25.7741C30.5656 25.7741 30.8507 25.6316 31.0217 25.375V25.7171H31.6204V24.3486ZM29.4251 24.3486C29.4251 23.8639 29.7387 23.4647 30.2519 23.4647C30.7366 23.4647 31.0787 23.8354 31.0787 24.3486C31.0787 24.8333 30.7366 25.2324 30.2519 25.2324C29.7387 25.2038 29.4251 24.8333 29.4251 24.3486ZM9.41013 24.3486V22.98H8.81139V23.3221C8.61177 23.0656 8.32669 22.923 7.95602 22.923C7.18624 22.923 6.5875 23.5218 6.5875 24.3486C6.5875 25.1753 7.18624 25.7741 7.95602 25.7741C8.35526 25.7741 8.64034 25.6316 8.81139 25.375V25.7171H9.41013V24.3486ZM7.18624 24.3486C7.18624 23.8639 7.49989 23.4647 8.01303 23.4647C8.49774 23.4647 8.83996 23.8354 8.83996 24.3486C8.83996 24.8333 8.49774 25.2324 8.01303 25.2324C7.49989 25.2038 7.18624 24.8333 7.18624 24.3486Z" fill="white"/>
<path d="M12.1191 2.19531H21.1001V18.3327H12.1191V2.19531Z" fill="#FF5F00"/>
<path d="M12.6895 10.2641C12.6895 6.98532 14.2291 4.07711 16.5955 2.19532C14.8564 0.826799 12.6611 0 10.2662 0C4.59221 0 0.00195312 4.59025 0.00195312 10.2641C0.00195312 15.9378 4.59221 20.5281 10.266 20.5281C12.661 20.5281 14.8563 19.7013 16.5955 18.3327C14.2291 16.4795 12.6895 13.5428 12.6895 10.2641Z" fill="#EB001B"/>
<path d="M33.2175 10.2641C33.2175 15.9378 28.6273 20.5281 22.9534 20.5281C20.5585 20.5281 18.3632 19.7013 16.624 18.3327C19.019 16.451 20.5301 13.5428 20.5301 10.2641C20.5301 6.98532 18.9904 4.07711 16.624 2.19532C18.3631 0.826799 20.5585 0 22.9534 0C28.6273 0 33.2176 4.61882 33.2176 10.2641H33.2175Z" fill="#F79E1B"/>
</g>
<defs>
<clipPath id="clip0_1_2506">
<rect width="33.2519" height="25.8455" fill="white"/>
</clipPath>
</defs>
</svg>
