<svg width="38" height="12" viewBox="0 0 38 12" fill="none" xmlns="http://www.w3.org/2000/svg">
<g clip-path="url(#clip0_1_2528)">
<path d="M19.6524 3.82094C19.6308 5.48591 21.1758 6.41497 22.3397 6.9674C23.5355 7.53415 23.9372 7.89762 23.9324 8.40451C23.9235 9.18017 22.9786 9.52253 22.0944 9.53583C20.5517 9.55911 19.6547 9.13015 18.9416 8.80571L18.3858 11.3386C19.1013 11.6597 20.4261 11.9397 21.7999 11.952C25.0246 11.952 27.1343 10.4016 27.1458 7.99767C27.1584 4.94677 22.8132 4.77791 22.8429 3.41424C22.8532 3.00075 23.2582 2.5595 24.1459 2.4473C24.5853 2.39063 25.7981 2.34726 27.1732 2.96403L27.7129 0.513426C26.9734 0.251161 26.023 2.86102e-05 24.8397 2.86102e-05C21.8045 2.86102e-05 19.6697 1.57159 19.6524 3.82094ZM32.899 0.211112C32.3102 0.211112 31.8139 0.545666 31.5925 1.05906L26.9861 11.772H30.2085L30.8497 10.0459H34.7874L35.1594 11.772H37.9995L35.5211 0.211112H32.899ZM33.3498 3.33415L34.2797 7.6754H31.7329L33.3498 3.33415ZM15.7455 0.211257L13.2054 11.7719H16.2761L18.815 0.210968H15.7455M11.2029 0.210968L8.00677 8.07993L6.7139 1.38928C6.56219 0.642389 5.96311 0.211112 5.29782 0.211112H0.0731788L0 0.546823C1.0726 0.773521 2.29125 1.13916 3.02957 1.53039C3.48141 1.76938 3.61025 1.97829 3.75869 2.5462L6.20743 11.772H9.45239L14.4274 0.211112H11.2029" fill="url(#paint0_linear_1_2528)"/>
</g>
<defs>
<linearGradient id="paint0_linear_1_2528" x1="17.4699" y1="12.1918" x2="17.8069" y2="-0.0835931" gradientUnits="userSpaceOnUse">
<stop stop-color="#222357"/>
<stop offset="1" stop-color="#254AA5"/>
</linearGradient>
<clipPath id="clip0_1_2528">
<rect width="38" height="12" fill="white"/>
</clipPath>
</defs>
</svg>
